<?xml version="1.0" encoding="UTF-8"?>
<svg width="156px" height="77px" viewBox="0 0 156 77" version="1.1" xmlns="http://www.w3.org/2000/svg" xmlns:xlink="http://www.w3.org/1999/xlink">
    <!-- Generator: Sketch 55.2 (78181) - https://sketchapp.com -->
    <title>Group 37</title>
    <desc>Created with Sketch.</desc>
    <g id="Page-1" stroke="none" stroke-width="1" fill="none" fill-rule="evenodd">
        <g id="Group-37">
            <rect id="Rectangle" fill-opacity="0.01" fill="#FFFFFF" x="0" y="0" width="156" height="77"></rect>
            <g id="Group-33" transform="translate(4.000000, 21.000000)">
                <g id="Group-32">
                    <path d="M2.00773668,0.00776666558 L32.0077367,0.123817724 C33.1092778,0.128078891 34,1.02225342 34,2.12380276 L34,34.5638203 C34,35.6683898 33.1045695,36.5638203 32,36.5638203 L2,36.5638203 C0.8954305,36.5638203 1.3527075e-16,35.6683898 0,34.5638203 L0,2.0077517 C3.0881846e-16,0.903182202 0.8954305,0.00775170147 2,0.00775170147 C2.0025789,0.00775170147 2.0051578,0.00775668952 2.00773668,0.00776666558 Z" id="Rectangle-Copy-44" fill="#276FFA"></path>
                    <path d="M17.6756603,10.1154714 L20.6891619,12.4051134 C18.3676495,14.8333724 17.2068933,17.7055186 17.2068933,21.0215517 C17.2068933,24.3375849 18.3676495,27.2097311 20.6891619,29.6379901 L17.6756603,32.0065852 C14.8184142,28.3940286 13.3897912,24.7323508 13.3897912,21.0215517 C13.3897912,17.3107527 14.8184142,13.6753926 17.6756603,10.1154714 Z" id="Rectangle-Copy-45" fill="#FFFFFF" transform="translate(17.039477, 21.061028) rotate(-90.000000) translate(-17.039477, -21.061028) "></path>
                </g>
            </g>
            <path d="M62.0860584,26.5390625 L66.243285,26.5390625 L66.243285,42.9262695 C66.243285,44.4838945 65.9102805,45.8132269 65.2442616,46.9143066 C64.5782426,48.0153864 63.6651658,48.8586397 62.5050037,49.4440918 C61.3448417,50.0295439 60.0289369,50.3222656 58.5572498,50.3222656 C57.0640783,50.3222656 55.7401169,50.0671412 54.585326,49.5568848 C53.4305351,49.0466283 52.5228293,48.2678275 51.8621815,47.220459 C51.2015336,46.1730905 50.8712147,44.8491291 50.8712147,43.2485352 L55.0284412,43.2485352 C55.0284412,44.5913153 55.3533892,45.550046 56.0032948,46.1247559 C56.6532003,46.6994658 57.5045102,46.9868164 58.5572498,46.9868164 C59.2554955,46.9868164 59.8677941,46.8283707 60.3941639,46.5114746 C60.9205337,46.1945785 61.3341038,45.7353546 61.6348866,45.1337891 C61.9356693,44.5322236 62.0860584,43.7963911 62.0860584,42.9262695 L62.0860584,26.5390625 Z M71.9150677,41.121582 C71.9150677,39.4243079 72.2373301,37.9096746 72.8818645,36.5776367 C73.526399,35.2455988 74.4529034,34.1901894 75.6614056,33.411377 C76.8699077,32.6325645 78.322774,32.2431641 80.0200481,32.2431641 C81.7388067,32.2431641 83.2051007,32.6325645 84.4189739,33.411377 C85.6328472,34.1901894 86.5593516,35.2455988 87.1985149,36.5776367 C87.8376783,37.9096746 88.1572552,39.4243079 88.1572552,41.121582 L88.1572552,41.4599609 C88.1572552,43.1464928 87.8376783,44.6584406 87.1985149,45.9958496 C86.5593516,47.3332586 85.6355327,48.388668 84.4270306,49.1621094 C83.2185284,49.9355507 81.7602911,50.3222656 80.0522747,50.3222656 C78.3442584,50.3222656 76.8833355,49.9355507 75.6694622,49.1621094 C74.4555889,48.388668 73.526399,47.3332586 72.8818645,45.9958496 C72.2373301,44.6584406 71.9150677,43.1464928 71.9150677,41.4599609 L71.9150677,41.121582 Z M75.9111614,41.4599609 C75.9111614,42.4912161 76.0561795,43.4338336 76.34622,44.2878418 C76.6362605,45.14185 77.0847424,45.8266576 77.691679,46.3422852 C78.2986156,46.8579127 79.085473,47.1157227 80.0522747,47.1157227 C81.0083342,47.1157227 81.7898205,46.8579127 82.3967571,46.3422852 C83.0036938,45.8266576 83.4494901,45.14185 83.7341595,44.2878418 C84.0188289,43.4338336 84.1611614,42.4912161 84.1611614,41.4599609 L84.1611614,41.121582 C84.1611614,40.1010691 84.0188289,39.1611371 83.7341595,38.3017578 C83.4494901,37.4423785 83.0010082,36.7521999 82.3887005,36.2312012 C81.7763927,35.7102025 80.9868499,35.449707 80.0200481,35.449707 C79.0639887,35.449707 78.2825023,35.7102025 77.6755657,36.2312012 C77.0686291,36.7521999 76.6228328,37.4423785 76.3381634,38.3017578 C76.053494,39.1611371 75.9111614,40.1010691 75.9111614,41.121582 L75.9111614,41.4599609 Z M103.328557,32.5654297 L107.598576,32.5654297 L100.621525,52.6425781 C100.460392,53.08301 100.250921,53.5556615 99.9931075,54.0605469 C99.7352937,54.5654297 99.3996037,55.0434548 98.9860274,55.4946289 C98.5724511,55.945803 98.0568313,56.3164048 97.4391524,56.6064453 C96.8214736,56.8964858 96.0775845,57.0415039 95.207463,57.0415039 C94.9711337,57.0415039 94.7428645,57.0280763 94.5226485,57.0012207 C94.3024326,56.9743651 94.0902765,56.9394533 93.8861739,56.8964844 C93.6820713,56.8535154 93.4833429,56.805176 93.2899825,56.7514648 L93.2899825,53.6738281 C93.3974049,53.6845704 93.5263099,53.6953124 93.6767013,53.7060547 C93.8270926,53.7167969 93.9506266,53.722168 94.0473067,53.722168 C95.0033662,53.722168 95.7284566,53.5502947 96.2225997,53.206543 C96.7167428,52.8627912 97.0980866,52.2773479 97.3666427,51.4501953 L98.6395919,48.0825195 L103.328557,32.5654297 Z M100.15424,45.472168 L100.863225,49.7905273 L98.0917403,50.4189453 L91.7914474,32.5654297 L96.1098067,32.5654297 L100.15424,45.472168 Z M113.331476,50 L113.331476,30.9057617 C113.331476,28.9721583 113.879322,27.4897512 114.975031,26.4584961 C116.070739,25.4272409 117.56926,24.9116211 119.470636,24.9116211 C119.857357,24.9116211 120.238701,24.9384763 120.614679,24.9921875 C120.990658,25.0458987 121.355888,25.1157222 121.710382,25.2016602 L121.613703,28.3276367 C121.4096,28.2846678 121.178645,28.2524415 120.920832,28.230957 C120.663018,28.2094725 120.394466,28.1987305 120.115168,28.1987305 C119.234304,28.1987305 118.549496,28.4323707 118.060724,28.8996582 C117.571952,29.3669457 117.32757,30.0356402 117.32757,30.9057617 L117.32757,50 L113.331476,50 Z M120.888605,35.5141602 L110.672785,35.5141602 L110.672785,32.5654297 L120.888605,32.5654297 L120.888605,35.5141602 Z M130.120384,50 L126.124291,50 L126.124291,32.5654297 L130.120384,32.5654297 L130.120384,50 Z M125.866478,28.0053711 C125.866478,27.3930633 126.065207,26.8855001 126.462669,26.482666 C126.860132,26.079832 127.41335,25.878418 128.122337,25.878418 C128.831325,25.878418 129.389914,26.079832 129.798119,26.482666 C130.206324,26.8855001 130.410423,27.3930633 130.410423,28.0053711 C130.410423,28.6069366 130.206324,29.1091288 129.798119,29.5119629 C129.389914,29.9147969 128.831325,30.1162109 128.122337,30.1162109 C127.41335,30.1162109 126.860132,29.9147969 126.462669,29.5119629 C126.065207,29.1091288 125.866478,28.6069366 125.866478,28.0053711 Z M140.782202,50 L136.786108,50 L136.786108,25.25 L140.782202,25.25 L140.782202,50 Z M151.444019,50 L147.447925,50 L147.447925,25.25 L151.444019,25.25 L151.444019,50 Z" id="Joyfill" fill="#161927" fill-rule="nonzero"></path>
        </g>
    </g>
</svg>